<?xml version="1.0" standalone="no"?>
<!DOCTYPE svg PUBLIC "-//W3C//DTD SVG 20010904//EN"
 "http://www.w3.org/TR/2001/REC-SVG-20010904/DTD/svg10.dtd">
<svg version="1.0" xmlns="http://www.w3.org/2000/svg"
 width="500.000000pt" height="500.000000pt" viewBox="0 0 500.000000 500.000000"
 preserveAspectRatio="xMidYMid meet">

<g transform="translate(0.000000,500.000000) scale(0.100000,-0.100000)"
fill="#000000" stroke="none">
<path d="M0 2500 l0 -2500 2500 0 2500 0 0 2500 0 2500 -2500 0 -2500 0 0
-2500z m2327 1384 c-3 -3 -12 -4 -19 -1 -8 3 -5 6 6 6 11 1 17 -2 13 -5z m290
0 c-3 -3 -12 -4 -19 -1 -8 3 -5 6 6 6 11 1 17 -2 13 -5z m-374 -11 c-7 -2 -19
-2 -25 0 -7 3 -2 5 12 5 14 0 19 -2 13 -5z m217 -193 c0 -28 5 -43 16 -47 21
-8 34 13 34 55 0 17 5 32 10 32 16 0 12 -86 -4 -99 -8 -7 -27 -11 -43 -9 -26
3 -28 6 -31 56 -2 31 1 52 7 52 6 0 11 -18 11 -40z m-199 -26 c21 -30 28 -49
21 -56 -6 -6 -12 -6 -16 1 -11 17 -44 13 -55 -6 -5 -10 -12 -15 -16 -11 -9 9
14 118 25 118 5 0 23 -21 41 -46z m489 28 c19 -16 21 -22 11 -40 -6 -12 -16
-22 -22 -22 -6 0 -6 -7 1 -19 13 -26 13 -31 -4 -25 -8 3 -17 15 -21 27 -6 19
-8 20 -12 5 -2 -10 -9 -18 -15 -18 -10 0 -3 84 9 103 7 12 30 8 53 -11z m-764
-92 c13 -32 21 -40 43 -40 25 -1 25 -1 6 -16 -11 -8 -26 -13 -34 -12 -14 3
-52 88 -44 101 8 13 13 7 29 -33z m-366 26 c0 -2 -8 -10 -17 -17 -16 -13 -17
-12 -4 4 13 16 21 21 21 13z m1368 -42 c2 -22 -1 -51 -7 -64 -9 -24 -9 -24
-17 -5 -11 29 -25 36 -59 29 l-30 -6 45 46 c24 25 49 45 55 43 5 -2 11 -21 13
-43z m-1408 12 c0 -2 -35 -34 -77 -71 l-78 -67 75 71 c74 70 80 75 80 67z
m1791 -13 c13 -16 12 -17 -3 -4 -10 7 -18 15 -18 17 0 8 8 3 21 -13z m60 -50
c13 -16 12 -17 -3 -4 -17 13 -22 21 -14 21 2 0 10 -8 17 -17z m-2001 -86 c0
-2 -15 -16 -32 -33 l-33 -29 29 33 c28 30 36 37 36 29z m2234 -170 c24 -34 55
-84 70 -112 31 -57 24 -48 -56 74 -31 47 -80 113 -108 146 l-52 60 51 -53 c28
-29 71 -81 95 -115z m-315 40 c-12 -31 -26 -54 -31 -51 -5 3 -7 12 -4 19 6 18
-22 41 -46 37 -35 -6 -18 14 35 40 28 14 56 23 60 19 4 -4 -2 -33 -14 -64z
m191 -147 c0 -21 -19 -40 -41 -40 -10 0 -21 -9 -24 -20 -9 -28 -26 -14 -19 15
5 20 3 23 -15 18 -33 -8 -24 9 22 43 38 29 44 30 60 16 9 -8 17 -23 17 -32z
m-1249 -169 c-29 -29 -32 -62 -29 -356 l3 -270 105 1 c130 1 158 12 182 74
l19 45 -6 -38 c-7 -43 -1 -43 43 -3 40 35 44 51 26 97 l-17 41 -13 -28 c-15
-34 -18 -17 -4 20 8 23 15 26 57 26 l48 0 110 -316 c60 -174 114 -319 120
-324 5 -4 19 -10 30 -13 11 -2 -25 -5 -80 -5 -55 0 -93 2 -83 5 29 8 28 32 -7
131 -19 53 -35 99 -35 101 0 2 -13 -11 -28 -27 -39 -42 -72 -48 -143 -28 -71
19 -113 20 -128 3 -6 -8 -17 -33 -26 -56 -19 -55 -3 -112 35 -122 15 -4 -7 -7
-55 -8 -71 -1 -77 1 -55 12 21 10 36 45 92 202 37 105 68 191 68 193 0 1 -93
2 -207 3 -131 0 -200 4 -186 9 12 5 26 18 32 29 7 13 11 121 11 300 0 268 -1
282 -20 301 l-20 20 90 0 c89 0 90 0 71 -19z m1334 -31 l-29 -30 42 0 c22 0
43 -4 46 -9 7 -11 -106 -21 -118 -11 -5 5 9 29 30 54 24 27 43 41 48 35 6 -5
-1 -20 -19 -39z m129 -242 c7 -32 -13 -40 -21 -8 -7 28 -23 25 -23 -5 0 -30
-16 -33 -23 -4 -3 13 -10 18 -17 14 -7 -4 -9 -16 -7 -27 3 -11 1 -18 -6 -15
-6 2 -14 15 -18 30 -7 25 -4 27 34 37 23 6 47 13 52 14 14 5 21 -5 29 -36z
m-2667 -5 c-3 -10 -5 -4 -5 12 0 17 2 24 5 18 2 -7 2 -21 0 -30z m21 -374 c39
-161 91 -276 197 -435 55 -82 63 -100 51 -109 -11 -8 -12 -15 -4 -30 10 -17
13 -36 17 -99 0 -10 16 -33 34 -50 17 -17 39 -40 47 -51 15 -20 15 -20 -8 0
l-23 19 11 -29 c6 -17 23 -42 38 -57 14 -16 21 -28 14 -28 -6 0 -19 12 -29 26
-10 15 -35 45 -56 68 -58 61 -108 138 -174 267 -119 231 -175 494 -157 744 l8
110 7 -130 c4 -71 16 -168 27 -216z m2682 151 c0 -22 -2 -40 -4 -40 -2 0 -20
7 -39 15 -46 19 -47 19 -47 -5 0 -37 -18 -20 -22 20 -2 22 -3 40 -2 40 1 0 23
-9 48 -20 l46 -19 0 24 c0 14 5 25 10 25 6 0 10 -18 10 -40z m147 -97 c-3 -10
-5 -4 -5 12 0 17 2 24 5 18 2 -7 2 -21 0 -30z m-152 -632 c-21 -43 -29 -39 -8
4 9 19 18 33 21 31 2 -2 -4 -18 -13 -35z m-2355 -141 c0 -18 -19 -11 -30 11
-11 19 -10 20 9 9 12 -6 21 -15 21 -20z m50 -45 c7 -9 11 -17 8 -20 -2 -2 -12
4 -21 15 -9 11 -13 20 -8 20 5 0 14 -7 21 -15z m2170 -29 c0 -2 -8 -10 -17
-17 -16 -13 -17 -12 -4 4 13 16 21 21 21 13z m-2139 -43 c13 -16 12 -17 -3 -4
-10 7 -18 15 -18 17 0 8 8 3 21 -13z m2099 -6 c0 -2 -17 -19 -37 -38 l-38 -34
34 38 c33 34 41 42 41 34z m-120 -120 c0 -2 -12 -14 -27 -28 l-28 -24 24 28
c23 25 31 32 31 24z m-110 -92 c0 -10 -134 -92 -215 -132 -141 -71 -401 -146
-416 -121 -4 6 -33 13 -65 17 l-59 6 55 13 c30 6 66 14 80 16 14 2 -6 4 -43 5
-39 0 -66 5 -62 10 3 5 -7 11 -22 13 l-28 3 24 14 c13 7 21 8 17 3 -8 -14 81
-28 144 -23 20 1 22 3 10 11 -8 5 -26 10 -40 10 -14 1 -38 8 -55 16 -16 8 -22
12 -12 9 29 -8 19 12 -13 25 -16 7 -30 16 -30 20 0 4 26 -3 58 -16 85 -34 169
-54 228 -54 116 0 284 54 389 125 56 37 55 37 55 30z m-1023 -211 c-3 -3 -12
-4 -19 -1 -8 3 -5 6 6 6 11 1 17 -2 13 -5z m120 0 c-3 -3 -12 -4 -19 -1 -8 3
-5 6 6 6 11 1 17 -2 13 -5z m116 -1 c-7 -2 -19 -2 -25 0 -7 3 -2 5 12 5 14 0
19 -2 13 -5z m-186 -9 c-3 -3 -12 -4 -19 -1 -8 3 -5 6 6 6 11 1 17 -2 13 -5z
m136 -1 c-7 -2 -19 -2 -25 0 -7 3 -2 5 12 5 14 0 19 -2 13 -5z m-216 -9 c-3
-3 -12 -4 -19 -1 -8 3 -5 6 6 6 11 1 17 -2 13 -5z m136 -1 c-7 -2 -19 -2 -25
0 -7 3 -2 5 12 5 14 0 19 -2 13 -5z m-86 -9 c-3 -3 -12 -4 -19 -1 -8 3 -5 6 6
6 11 1 17 -2 13 -5z m171 -1 c-10 -2 -26 -2 -35 0 -10 3 -2 5 17 5 19 0 27 -2
18 -5z m-261 -9 c-3 -3 -12 -4 -19 -1 -8 3 -5 6 6 6 11 1 17 -2 13 -5z m156
-1 c-7 -2 -19 -2 -25 0 -7 3 -2 5 12 5 14 0 19 -2 13 -5z m-90 -10 c-7 -2 -21
-2 -30 0 -10 3 -4 5 12 5 17 0 24 -2 18 -5z m341 -1 c3 -5 -32 -7 -77 -5 -118
6 -126 11 -20 12 50 0 94 -3 97 -7z m-256 -9 c-10 -2 -26 -2 -35 0 -10 3 -2 5
17 5 19 0 27 -2 18 -5z"/>
<path d="M2220 3650 c0 -11 7 -20 15 -20 13 0 14 4 5 20 -6 11 -13 20 -15 20
-3 0 -5 -9 -5 -20z"/>
<path d="M2716 3673 c-12 -12 -6 -33 9 -33 8 0 15 6 15 14 0 17 -14 28 -24 19z"/>
<path d="M2945 3569 c-4 -6 -5 -13 -2 -16 7 -7 27 6 27 18 0 12 -17 12 -25 -2z"/>
<path d="M3321 3341 c-8 -5 -10 -14 -6 -21 6 -9 10 -8 17 4 12 21 7 28 -11 17z"/>
<path d="M3491 3166 c-9 -10 -9 -16 -1 -21 17 -10 37 12 24 25 -8 8 -15 6 -23
-4z"/>
<path d="M2633 2413 c-19 -57 -20 -58 -61 -61 l-41 -3 -25 -77 c-32 -94 -32
-97 -4 -78 28 20 73 20 128 1 48 -17 88 -19 109 -6 12 8 6 33 -33 145 -27 75
-50 136 -51 136 -2 0 -12 -26 -22 -57z"/>
<path d="M1310 1852 c4 -17 6 -33 2 -36 -3 -3 -1 -6 4 -7 5 0 17 -2 26 -4 11
-2 15 2 11 11 -3 8 -9 14 -14 14 -5 0 -9 6 -9 14 0 7 -7 19 -15 26 -12 10 -13
7 -5 -18z"/>
</g>
</svg>
