<?xml version="1.0" standalone="no"?>
<!DOCTYPE svg PUBLIC "-//W3C//DTD SVG 20010904//EN"
 "http://www.w3.org/TR/2001/REC-SVG-20010904/DTD/svg10.dtd">
<svg version="1.0" xmlns="http://www.w3.org/2000/svg"
 width="166.000000pt" height="193.000000pt" viewBox="0 0 166.000000 193.000000"
 preserveAspectRatio="xMidYMid meet">

<g transform="translate(0.000000,193.000000) scale(0.100000,-0.100000)"
fill="#000000" stroke="none">
<path d="M7 1523 c7 -2 19 -2 26 0 6 3 1 5 -13 5 -14 0 -19 -2 -13 -5z"/>
<path d="M58 1523 c7 -3 16 -2 19 1 4 3 -2 6 -13 5 -11 0 -14 -3 -6 -6z"/>
<path d="M472 1438 c-6 -13 -11 -17 -11 -10 -1 15 -27 16 -37 0 -5 -7 -3 -8 6
-3 10 6 12 4 7 -9 -4 -9 -3 -15 2 -12 5 3 11 -3 14 -15 4 -14 -1 -23 -16 -29
-18 -7 -19 -9 -4 -9 11 -1 15 -5 11 -13 -4 -7 -3 -8 4 -4 12 7 47 114 39 122
-2 2 -9 -6 -15 -18z"/>
<path d="M1050 791 c-9 -19 -8 -21 12 -17 13 1 23 9 23 16 0 22 -23 23 -35 1z
m30 -1 c0 -5 -2 -10 -4 -10 -3 0 -8 5 -11 10 -3 6 -1 10 4 10 6 0 11 -4 11
-10z"/>
<path d="M964 775 c-28 -11 -51 -51 -39 -64 3 -2 5 0 5 6 0 6 10 9 23 6 15 -2
28 4 39 20 23 34 11 48 -28 32z"/>
<path d="M1015 760 c-3 -11 -11 -20 -16 -20 -5 0 -9 -4 -9 -10 0 -5 7 -10 15
-10 8 0 15 5 15 11 0 5 4 8 9 5 5 -3 15 2 22 11 12 15 12 16 -4 10 -10 -4 -16
-3 -12 2 3 5 1 12 -4 15 -5 4 -12 -3 -16 -14z"/>
<path d="M1197 585 c-4 -8 -3 -16 1 -19 4 -3 9 4 9 15 2 23 -3 25 -10 4z"/>
<path d="M1163 555 c-7 -8 -13 -18 -13 -24 0 -5 -7 -11 -15 -15 -8 -3 -15 -10
-15 -15 0 -12 54 -3 58 10 2 5 8 7 12 4 5 -3 4 8 -1 25 -6 16 -12 30 -12 30
-1 -1 -8 -7 -14 -15z"/>
<path d="M1065 549 c-4 -6 -5 -12 -2 -15 2 -3 7 2 10 11 7 17 1 20 -8 4z"/>
<path d="M1225 534 c-20 -15 -12 -17 19 -5 11 4 15 10 10 13 -5 4 -18 0 -29
-8z"/>
<path d="M1335 470 c3 -5 8 -10 11 -10 2 0 4 5 4 10 0 6 -5 10 -11 10 -5 0 -7
-4 -4 -10z"/>
<path d="M1204 442 c7 -11 -6 -17 -27 -13 -5 1 -6 -3 -3 -8 10 -16 -5 -41 -26
-41 -10 0 -29 -11 -42 -25 -19 -21 -25 -23 -30 -10 -3 8 -15 15 -26 15 -13 0
-24 10 -30 25 -11 30 -20 33 -13 5 4 -14 0 -20 -10 -20 -22 0 -76 -60 -70 -77
3 -7 0 -13 -6 -13 -6 0 -11 -8 -12 -17 0 -12 -2 -13 -6 -5 -4 10 -9 9 -19 -5
-13 -17 -14 -17 -8 0 3 9 2 17 -2 17 -21 -1 -37 -20 -39 -49 -2 -17 -10 -42
-19 -56 -9 -13 -16 -36 -16 -50 0 -15 -4 -24 -10 -20 -5 3 -10 20 -10 37 0 40
-13 28 -14 -13 -1 -20 5 -34 17 -40 10 -6 15 -15 11 -21 -4 -7 -9 -6 -15 3 -7
11 -9 10 -9 -3 0 -10 -7 -18 -16 -18 -9 0 -14 6 -11 13 2 6 0 21 -4 32 l-9 20
2 -20 c2 -11 -1 -26 -5 -32 -14 -22 1 -32 34 -23 24 7 30 6 26 -5 -8 -18 20
-27 43 -15 11 6 23 9 27 8 4 -1 21 5 37 13 23 11 30 11 34 1 5 -17 22 -15 22
3 0 9 6 12 15 9 8 -4 15 -1 15 7 0 7 3 10 6 6 8 -8 44 25 44 41 0 7 4 11 9 7
11 -6 36 34 33 51 -1 6 6 11 15 11 35 0 43 3 43 16 0 19 35 36 59 30 16 -4 20
-11 16 -24 -4 -11 -2 -19 4 -19 6 0 10 3 9 8 -1 4 2 19 6 35 6 19 15 27 30 27
15 0 25 9 33 30 11 29 10 30 -17 30 -35 0 -45 13 -30 40 6 11 7 26 3 33 -13
21 -12 38 3 44 11 4 12 8 2 20 -10 12 -13 11 -24 -8 -6 -13 -9 -30 -6 -38 3
-9 1 -12 -5 -8 -6 4 -13 1 -16 -5 -2 -7 -4 -1 -3 14 0 14 4 24 7 22 4 -2 9 3
13 11 3 8 0 17 -6 21 -7 4 -8 3 -4 -4z m-4 -92 c0 -5 -4 -10 -10 -10 -5 0 -10
5 -10 10 0 6 5 10 10 10 6 0 10 -4 10 -10z m-10 -91 c0 -6 -7 -9 -15 -5 -8 3
-15 0 -16 -7 0 -9 -2 -9 -6 1 -2 6 -10 9 -15 6 -7 -4 -8 -2 -4 4 9 15 56 16
56 1z m-327 -66 c-5 -11 -3 -14 6 -8 10 6 11 3 2 -14 -7 -11 -17 -21 -24 -20
-9 0 -9 2 1 6 6 2 12 9 12 14 0 6 -5 7 -11 3 -8 -4 -8 0 0 15 14 25 23 28 14
4z m204 8 c8 7 13 8 13 1 0 -18 -28 -21 -41 -4 -11 14 -11 15 1 5 10 -9 17
-10 27 -2z m-160 -83 c-3 -8 -6 -5 -6 6 -1 11 2 17 5 13 3 -3 4 -12 1 -19z
m-16 -71 c-10 -9 -11 -8 -5 6 3 10 9 15 12 12 3 -3 0 -11 -7 -18z"/>
<path d="M1301 404 c0 -11 3 -14 6 -6 3 7 2 16 -1 19 -3 4 -6 -2 -5 -13z"/>
<path d="M1260 360 c-9 -18 -8 -20 17 -21 15 0 40 -2 56 -3 16 -1 27 3 27 11
0 9 -7 10 -22 4 -14 -5 -34 -4 -48 1 -24 10 -24 11 -5 18 17 7 17 9 3 9 -10 1
-22 -8 -28 -19z"/>
<path d="M800 290 c-8 -5 -10 -10 -5 -10 6 0 3 -5 -5 -10 -12 -8 -10 -10 10
-7 14 1 31 6 39 11 11 7 11 10 0 17 -18 11 -21 11 -39 -1z"/>
<path d="M1470 293 c0 -6 8 -17 18 -24 16 -13 16 -13 2 6 -8 11 -16 22 -17 24
-2 2 -3 0 -3 -6z"/>
<path d="M1305 276 c-17 -12 -16 -14 17 -18 33 -3 35 -2 27 14 -12 22 -19 22
-44 4z"/>
<path d="M1388 283 c7 -3 16 -2 19 1 4 3 -2 6 -13 5 -11 0 -14 -3 -6 -6z"/>
<path d="M783 243 c4 -3 -1 -16 -10 -27 -18 -21 -18 -21 5 -2 24 21 29 36 10
36 -6 0 -8 -3 -5 -7z"/>
<path d="M736 145 c-3 -8 -1 -15 4 -15 6 0 10 7 10 15 0 8 -2 15 -4 15 -2 0
-6 -7 -10 -15z"/>
<path d="M228 93 c7 -3 16 -2 19 1 4 3 -2 6 -13 5 -11 0 -14 -3 -6 -6z"/>
<path d="M1191 14 c0 -11 3 -14 6 -6 3 7 2 16 -1 19 -3 4 -6 -2 -5 -13z"/>
<path d="M750 10 c-9 -6 -10 -10 -3 -10 6 0 15 5 18 10 8 12 4 12 -15 0z"/>
</g>
</svg>
